<svg id="Layer_1" data-name="Layer 1" xmlns="http://www.w3.org/2000/svg" viewBox="0 0 83 41.04"><defs><style>.cls-1{fill:#383c45;}</style></defs><title>logo_head_Blue copy</title><path class="cls-1" d="M26.55.7h-18a8,8,0,0,0-8,8V20.8A16.9,16.9,0,0,0,6.89,34a4,4,0,1,0,5-6.21,9,9,0,0,1-3.34-7V8.69h18V20.8a9,9,0,0,1-3.83,7.36l-7.45,5.22a4,4,0,1,0,4.58,6.54l7.45-5.21A17,17,0,0,0,34.54,20.8V8.69A8,8,0,0,0,26.55.7ZM19.61,38.08A2.5,2.5,0,1,1,19,34.61,2.5,2.5,0,0,1,19.61,38.08Z"/><path class="cls-1" d="M54.93,20.24v2.2H49V25h4.64v2.2H49v4.49H46.53V20.24Z"/><path class="cls-1" d="M58.75,31.58l-3.1-7.92h2.29L59.81,29l1.88-5.31H64l-3.18,8.48q-1.09,2.94-3.1,2.94A4.25,4.25,0,0,1,57,35a3,3,0,0,1-.51-.13l-.16,0v-2a1.8,1.8,0,0,0,.81.16,1.4,1.4,0,0,0,1.39-.9Z"/><path class="cls-1" d="M69.48,23.79a2.68,2.68,0,0,1,.84.56l.25.29v-4.4h2.2V31.66h-2.2v-1l-.1.12a3,3,0,0,1-.29.27,2.73,2.73,0,0,1-.47.35,2.56,2.56,0,0,1-.66.28,3,3,0,0,1-.85.12,3.57,3.57,0,0,1-2.69-1.21,4.39,4.39,0,0,1,0-5.9A3.61,3.61,0,0,1,68.2,23.5,2.9,2.9,0,0,1,69.48,23.79ZM70,29.25a2.28,2.28,0,0,0,.57-1.59A2.24,2.24,0,0,0,70,26.08a1.85,1.85,0,0,0-1.39-.62,1.82,1.82,0,0,0-1.38.62,2.2,2.2,0,0,0-.58,1.58,2.24,2.24,0,0,0,.58,1.59,1.82,1.82,0,0,0,1.38.62A1.85,1.85,0,0,0,70,29.25Z"/><path class="cls-1" d="M76.76,28.39a1.79,1.79,0,0,0,.69,1.11,2.2,2.2,0,0,0,1.42.45A2.58,2.58,0,0,0,80,29.7a2.06,2.06,0,0,0,.75-.49L81,29l1.14,1.46-.15.15a4.22,4.22,0,0,1-.43.34,4,4,0,0,1-.69.42,3.86,3.86,0,0,1-1,.33,4.83,4.83,0,0,1-1.21.15,4.14,4.14,0,0,1-3-1.22,4.16,4.16,0,0,1,2.92-7.1,3.81,3.81,0,0,1,2.85,1.15,3.87,3.87,0,0,1,1.14,2.85l-.08.89Zm.68-2.6a2.15,2.15,0,0,0-.68,1.06h3.67a1.81,1.81,0,0,0-.61-1.05,1.75,1.75,0,0,0-1.19-.42A1.83,1.83,0,0,0,77.44,25.79Z"/></svg>